# xmcd CD database file
#
# Track frame offsets:
#	150
#	15687
#	39967
#	57822
#	79172
#	103862
#	122975
#	138987
#
# Disc length: 2094 seconds
#
# Revision: 0
# Processed by: cddbd v1.5.2PL0 Copyright (c) Steve Scherf et al.
# Submitted via: CDex 1.70beta2
#
DISCID=64082c08
DTITLE=Mario Ortiz - Vamos A Gozar
DYEAR=1984
DGENRE=Salsa
TTITLE0=Vamos
TTITLE1=La Gordita
TTITLE2=Arrollando Va El Sabor
TTITLE3=Festival De La Caña
TTITLE4=Los Soneros
TTITLE5=Cuidadito
TTITLE6=El Pescador
TTITLE7=Yo La Busque
EXTD=YEAR: 1984
EXTT0=
EXTT1=
EXTT2=
EXTT3=
EXTT4=
EXTT5=
EXTT6=
EXTT7=
PLAYORDER=
